<?xml version="1.0" encoding="UTF-8"?>
<svg id="Layer_1" xmlns="http://www.w3.org/2000/svg" version="1.1" viewBox="0 0 250 150">
  <!-- Generator: Adobe Illustrator 29.6.1, SVG Export Plug-In . SVG Version: 2.1.1 Build 9)  -->
  <defs>
    <style>
      .st0 {
        stroke: #ede4e6;
      }

      .st0, .st1, .st2, .st3, .st4 {
        stroke-miterlimit: 10;
      }

      .st0, .st2 {
        fill: #fff;
      }

      .st0, .st2, .st3, .st4 {
        stroke-width: .25px;
      }

      .st1 {
        stroke: #75c6ef;
        stroke-width: 3px;
      }

      .st1, .st5 {
        fill: #75c6ef;
      }

      .st2 {
        stroke: #231f20;
      }

      .st6 {
        fill: #fee76a;
      }

      .st3 {
        fill: #699fd5;
        stroke: #fff;
      }

      .st4 {
        fill: #f57f20;
        stroke: #eef2bf;
      }
    </style>
  </defs>
  <g>
    <path class="st5" d="M81.77,74.99c0,20.37-16.52,36.89-36.89,36.89-16.52,0-27.32-12.05-28.19-13.11-1.81-2.16-9.05-11.23-8.69-23.78.52-16.92,14.73-36.86,36.89-36.86,13.84,0,23.45,8.32,25.19,9.94,1.36,1.27,11.7,11.58,11.7,26.93Z"/>
    <path class="st2" d="M79.32,82.35"/>
    <path class="st3" d="M42.33,92.71c-.05-.5.1-.96.39-1.32.37-.45.7-.94.94-1.47l.44-1,.45,1.01c.22.5.5.97.87,1.38.29.32.47.74.47,1.21,0,1.05-.91,1.89-1.99,1.78-.82-.09-1.49-.76-1.57-1.59Z"/>
    <path class="st3" d="M42.5,100.79c-.05-.5.1-.96.39-1.32.37-.45.7-.94.94-1.47l.44-1,.45,1.01c.22.5.5.97.87,1.38.29.32.47.74.47,1.21,0,1.05-.91,1.89-1.99,1.78-.82-.09-1.49-.76-1.57-1.59Z"/>
    <path class="st3" d="M48.43,95.41c-.05-.5.1-.96.39-1.32.37-.45.7-.94.94-1.47l.44-1,.45,1.01c.22.5.5.97.87,1.38.29.32.47.74.47,1.21,0,1.05-.91,1.89-1.99,1.78-.82-.09-1.49-.76-1.57-1.59Z"/>
    <path class="st3" d="M54.25,92.71c-.05-.5.1-.96.39-1.32.37-.45.7-.94.94-1.47l.44-1,.45,1.01c.22.5.5.97.87,1.38.29.32.47.74.47,1.21,0,1.05-.91,1.89-1.99,1.78-.82-.09-1.49-.76-1.57-1.59Z"/>
    <path class="st3" d="M54.25,100.79c-.05-.5.1-.96.39-1.32.37-.45.7-.94.94-1.47l.44-1,.45,1.01c.22.5.5.97.87,1.38.29.32.47.74.47,1.21,0,1.05-.91,1.89-1.99,1.78-.82-.09-1.49-.76-1.57-1.59Z"/>
    <g>
      <circle class="st4" cx="35.69" cy="70.51" r="6.38"/>
      <g>
        <line class="st4" x1="35.06" y1="63.19" x2="35.06" y2="58.74"/>
        <line class="st4" x1="36.32" y1="63.19" x2="36.32" y2="60.96"/>
      </g>
      <circle class="st4" cx="35.69" cy="70.51" r="6.38"/>
      <g>
        <line class="st4" x1="32.59" y1="63.84" x2="31.07" y2="59.66"/>
        <line class="st4" x1="33.78" y1="63.41" x2="33.02" y2="61.32"/>
      </g>
      <circle class="st4" cx="35.69" cy="70.51" r="6.38"/>
      <g>
        <line class="st4" x1="30.5" y1="65.3" x2="27.64" y2="61.9"/>
        <line class="st4" x1="31.47" y1="64.49" x2="30.04" y2="62.79"/>
      </g>
      <circle class="st4" cx="35.69" cy="70.51" r="6.38"/>
      <g>
        <line class="st4" x1="29.04" y1="67.39" x2="25.18" y2="65.17"/>
        <line class="st4" x1="29.67" y1="66.3" x2="27.74" y2="65.19"/>
      </g>
      <circle class="st4" cx="35.69" cy="70.51" r="6.38"/>
      <g>
        <line class="st4" x1="28.37" y1="69.86" x2="23.99" y2="69.08"/>
        <line class="st4" x1="28.59" y1="68.61" x2="26.4" y2="68.23"/>
      </g>
      <circle class="st4" cx="35.69" cy="70.51" r="6.38"/>
      <g>
        <line class="st4" x1="28.59" y1="72.4" x2="24.21" y2="73.17"/>
        <line class="st4" x1="28.37" y1="71.16" x2="26.18" y2="71.54"/>
      </g>
      <circle class="st4" cx="35.69" cy="70.51" r="6.38"/>
      <g>
        <line class="st4" x1="29.67" y1="74.71" x2="25.81" y2="76.94"/>
        <line class="st4" x1="29.04" y1="73.62" x2="27.11" y2="74.73"/>
      </g>
      <circle class="st4" cx="35.69" cy="70.51" r="6.38"/>
      <g>
        <line class="st4" x1="31.47" y1="76.52" x2="28.61" y2="79.93"/>
        <line class="st4" x1="30.5" y1="75.71" x2="29.07" y2="77.41"/>
      </g>
      <circle class="st4" cx="35.69" cy="70.51" r="6.38"/>
      <g>
        <line class="st4" x1="33.78" y1="77.6" x2="32.26" y2="81.78"/>
        <line class="st4" x1="32.59" y1="77.17" x2="31.83" y2="79.26"/>
      </g>
      <circle class="st4" cx="35.69" cy="70.51" r="6.38"/>
      <g>
        <line class="st4" x1="36.32" y1="77.83" x2="36.32" y2="82.28"/>
        <line class="st4" x1="35.06" y1="77.83" x2="35.06" y2="80.05"/>
      </g>
      <circle class="st4" cx="35.69" cy="70.51" r="6.38"/>
      <g>
        <line class="st4" x1="38.79" y1="77.17" x2="40.31" y2="81.35"/>
        <line class="st4" x1="37.6" y1="77.6" x2="38.36" y2="79.69"/>
      </g>
      <circle class="st4" cx="35.69" cy="70.51" r="6.38"/>
      <g>
        <line class="st4" x1="40.88" y1="75.71" x2="43.74" y2="79.12"/>
        <line class="st4" x1="39.91" y1="76.52" x2="41.34" y2="78.23"/>
      </g>
      <circle class="st4" cx="35.69" cy="70.51" r="6.38"/>
      <g>
        <line class="st4" x1="42.35" y1="73.62" x2="46.2" y2="75.85"/>
        <line class="st4" x1="41.72" y1="74.71" x2="43.64" y2="75.83"/>
      </g>
      <circle class="st4" cx="35.69" cy="70.51" r="6.38"/>
      <g>
        <line class="st4" x1="43.01" y1="71.16" x2="47.39" y2="71.93"/>
        <line class="st4" x1="42.79" y1="72.4" x2="44.98" y2="72.79"/>
      </g>
      <circle class="st4" cx="35.69" cy="70.51" r="6.38"/>
      <g>
        <line class="st4" x1="42.79" y1="68.61" x2="47.17" y2="67.84"/>
        <line class="st4" x1="43.01" y1="69.86" x2="45.2" y2="69.47"/>
      </g>
      <circle class="st4" cx="35.69" cy="70.51" r="6.38"/>
      <g>
        <line class="st4" x1="41.72" y1="66.3" x2="45.57" y2="64.07"/>
        <line class="st4" x1="42.35" y1="67.39" x2="44.27" y2="66.28"/>
      </g>
      <circle class="st4" cx="35.69" cy="70.51" r="6.38"/>
      <g>
        <line class="st4" x1="39.91" y1="64.49" x2="42.77" y2="61.08"/>
        <line class="st4" x1="40.88" y1="65.3" x2="42.31" y2="63.6"/>
      </g>
      <circle class="st4" cx="35.69" cy="70.51" r="6.38"/>
      <g>
        <line class="st4" x1="37.6" y1="63.41" x2="39.12" y2="59.23"/>
        <line class="st4" x1="38.79" y1="63.84" x2="39.55" y2="61.75"/>
      </g>
    </g>
    <path class="st0" d="M62.18,83.11c0,2.19-1.76,3.92-3.92,3.92h-26.74c-2.19,0-3.95-1.74-3.95-3.92s1.69-3.85,3.81-3.92c-.52-.8-.82-1.74-.82-2.75,0-2.8,2.26-5.05,5.05-5.05.4,0,.78.05,1.13.14v-.14c0-4.63,3.76-8.41,8.41-8.41s8.41,3.78,8.41,8.41v.07c.31-.05.61-.07.92-.07,2.77,0,5.03,2.26,5.03,5.05,0,1.01-.31,1.97-.85,2.77,1.97.19,3.52,1.88,3.52,3.9Z"/>
    <path class="st0" d="M71.09,49.09"/>
    <polygon class="st6" points="36.54 88.65 40.6 89.23 36.32 95.63 39.22 96.14 29.52 104.78 33.8 96.35 31.61 95.97 36.54 88.65"/>
  </g>
  <g>
    <path class="st1" d="M94.86,90.56l-7.61-30.01h4.1l3.56,15.18c.89,3.74,1.69,7.48,2.23,10.37h.09c.49-2.98,1.42-6.55,2.45-10.42l4.01-15.14h4.05l3.65,15.23c.85,3.56,1.65,7.12,2.09,10.29h.09c.62-3.29,1.47-6.63,2.4-10.37l3.96-15.14h3.96l-8.5,30.01h-4.05l-3.78-15.63c-.94-3.83-1.56-6.77-1.96-9.8h-.09c-.53,2.98-1.2,5.92-2.32,9.8l-4.27,15.63h-4.05Z"/>
    <path class="st1" d="M128.21,80.5c.09,5.3,3.47,7.48,7.39,7.48,2.8,0,4.5-.49,5.97-1.11l.67,2.8c-1.38.62-3.74,1.34-7.17,1.34-6.63,0-10.6-4.36-10.6-10.86s3.83-11.62,10.11-11.62c7.04,0,8.91,6.19,8.91,10.15,0,.8-.09,1.42-.13,1.83h-15.14ZM139.7,77.69c.04-2.49-1.02-6.37-5.43-6.37-3.96,0-5.7,3.65-6.01,6.37h11.44Z"/>
    <path class="st1" d="M160.27,90.56l-.31-2.72h-.13c-1.2,1.69-3.52,3.21-6.59,3.21-4.36,0-6.59-3.07-6.59-6.19,0-5.21,4.63-8.06,12.96-8.01v-.45c0-1.78-.49-4.99-4.9-4.99-2,0-4.1.62-5.61,1.6l-.89-2.58c1.78-1.16,4.36-1.91,7.08-1.91,6.59,0,8.19,4.5,8.19,8.82v8.06c0,1.87.09,3.7.36,5.17h-3.56ZM159.69,79.56c-4.27-.09-9.13.67-9.13,4.85,0,2.54,1.69,3.74,3.7,3.74,2.81,0,4.59-1.78,5.21-3.61.13-.4.22-.85.22-1.25v-3.74Z"/>
    <path class="st1" d="M174.34,62.82v6.19h5.61v2.98h-5.61v11.62c0,2.67.76,4.19,2.94,4.19,1.02,0,1.78-.13,2.27-.27l.18,2.94c-.76.31-1.96.53-3.47.53-1.83,0-3.29-.58-4.23-1.65-1.11-1.16-1.51-3.07-1.51-5.61v-11.75h-3.34v-2.98h3.34v-5.16l3.83-1.02Z"/>
    <path class="st1" d="M184.36,58.95h3.92v13.45h.09c.62-1.11,1.6-2.09,2.8-2.76,1.16-.67,2.54-1.11,4.01-1.11,2.89,0,7.52,1.78,7.52,9.22v12.82h-3.92v-12.38c0-3.47-1.29-6.41-4.99-6.41-2.54,0-4.54,1.78-5.25,3.92-.22.53-.27,1.11-.27,1.87v13h-3.92v-31.61Z"/>
    <path class="st1" d="M211.25,80.5c.09,5.3,3.47,7.48,7.39,7.48,2.8,0,4.5-.49,5.97-1.11l.67,2.8c-1.38.62-3.74,1.34-7.17,1.34-6.63,0-10.6-4.36-10.6-10.86s3.83-11.62,10.11-11.62c7.04,0,8.91,6.19,8.91,10.15,0,.8-.09,1.42-.13,1.83h-15.14ZM222.74,77.69c.04-2.49-1.02-6.37-5.43-6.37-3.96,0-5.7,3.65-6.01,6.37h11.44Z"/>
    <path class="st1" d="M231.38,75.73c0-2.54-.04-4.72-.18-6.72h3.43l.13,4.23h.18c.98-2.89,3.34-4.72,5.97-4.72.45,0,.76.04,1.11.13v3.7c-.4-.09-.8-.13-1.34-.13-2.76,0-4.72,2.09-5.25,5.03-.09.53-.18,1.16-.18,1.83v11.49h-3.87v-14.83Z"/>
  </g>
</svg>